<?xml version="1.0" encoding="UTF-8" standalone="no"?>
<svg
   xmlns:dc="http://purl.org/dc/elements/1.1/"
   xmlns:cc="http://creativecommons.org/ns#"
   xmlns:rdf="http://www.w3.org/1999/02/22-rdf-syntax-ns#"
   xmlns:svg="http://www.w3.org/2000/svg"
   xmlns="http://www.w3.org/2000/svg"
   xmlns:sodipodi="http://sodipodi.sourceforge.net/DTD/sodipodi-0.dtd"
   xmlns:inkscape="http://www.inkscape.org/namespaces/inkscape"
   version="1.1"
   id="svg2"
   width="546.1333"
   height="546.1333"
   viewBox="0 0 546.1333 546.1333"
   sodipodi:docname="notrack-magnet.svg"
   inkscape:version="1.0.1 (3bc2e813f5, 2020-09-07)"
   inkscape:export-filename="D:\Downloads\notrack-magnet.png"
   inkscape:export-xdpi="88.239998"
   inkscape:export-ydpi="88.239998">
  <metadata
     id="metadata8">
    <rdf:RDF>
      <cc:Work
         rdf:about="">
        <dc:format>image/svg+xml</dc:format>
        <dc:type
           rdf:resource="http://purl.org/dc/dcmitype/StillImage" />
        <dc:title></dc:title>
      </cc:Work>
    </rdf:RDF>
  </metadata>
  <defs
     id="defs6" />
  <sodipodi:namedview
     pagecolor="#ffffff"
     bordercolor="#666666"
     borderopacity="1"
     objecttolerance="10"
     gridtolerance="10"
     guidetolerance="10"
     inkscape:pageopacity="0"
     inkscape:pageshadow="2"
     inkscape:window-width="1920"
     inkscape:window-height="991"
     id="namedview4"
     showgrid="false"
     inkscape:zoom="4.6963328"
     inkscape:cx="362.23824"
     inkscape:cy="133.99388"
     inkscape:window-x="-9"
     inkscape:window-y="-9"
     inkscape:window-maximized="1"
     inkscape:current-layer="g868" />
  <g
     id="g868"
     style="opacity:1">
    <path
       style="fill:#e7e9e8;stroke-width:1.06667"
       d="m 196.26665,545.4557 c -30.38916,-2.95321 -54.4561,-9.50898 -78.1721,-21.29389 C 46.339724,488.50557 0,414.06091 0,334.44321 0,285.32744 17.963473,235.97233 49.320691,198.93332 c 4.470048,-5.28 50.400902,-51.83833 102.068569,-103.462959 l 93.9412,-93.8629596 41.60101,41.5907476 41.601,41.590746 -34.66625,34.678195 c -19.06643,19.073 -34.66624,35.14597 -34.66624,35.7177 0,0.57174 -27.28489,28.40905 -60.63309,61.86069 -42.59007,42.72218 -61.95736,62.88437 -65.08327,67.7545 -15.01384,23.39136 -18.12053,54.44849 -8.18475,81.8213 8.12628,22.38765 28.72674,43.63408 50.92635,52.52322 29.27608,11.72272 59.68472,8.87011 85.91308,-8.05942 3.75219,-2.42192 29.49564,-27.16252 66.39501,-63.80857 33.14667,-32.91911 76.47109,-75.91805 96.2765,-95.5532 l 36.00982,-35.70026 41.58287,41.58846 41.58285,41.58847 -97.85935,98.32541 c -64.59471,64.90235 -100.79538,100.50047 -106.49666,104.72408 -29.84663,22.11092 -62.33727,35.85541 -97.53663,41.26085 -10.4635,1.60685 -37.49942,2.75455 -45.82606,1.94538 z m 40.39613,-199.85572 c 0.56573,-1.46667 7.05071,-16.10667 14.41107,-32.53333 l 13.38249,-29.86667 -19.70275,-0.53333 -19.70276,-0.53333 41.65747,-41.6 c 22.91162,-22.88 41.20488,-40.37948 40.65169,-38.88773 -0.55317,1.49174 -6.57548,16.00291 -13.38289,32.24703 -6.80741,16.24412 -12.37712,29.77253 -12.37712,30.06312 0,0.29059 8.4031,0.65942 18.67355,0.81964 l 18.67355,0.29127 -41.65644,41.6 c -22.91105,22.88 -41.19358,40.4 -40.62786,38.93333 z"
       id="path898" />
    <path
       style="display:none;fill:#d0e6e9;stroke-width:1.06667"
       d="m 197.86665,545.50819 c -1.17333,-0.15083 -7.17333,-0.84088 -13.33333,-1.53348 C 108.19225,535.39133 40.397868,480.91008 12.676911,405.86664 8.6922815,395.07985 3.822589,375.64978 1.9835043,363.19998 0.11593368,350.55733 0.12552825,316.71856 1.9999874,305.06665 8.1350649,266.93011 22.131606,233.96305 44.56934,204.79999 48.4442,199.7637 79.081463,168.10715 113.49029,133.58606 l 61.94514,-62.147264 42.13748,42.137474 42.13748,42.13748 -61.44977,61.60979 c -65.34204,65.51215 -66.33053,66.64353 -72.92165,83.46204 -7.68759,19.61633 -7.88354,45.05838 -0.50019,64.9413 10.93208,29.43943 35.32954,50.78685 66.77421,58.42649 10.83043,2.63131 31.4622,2.34535 42.52033,-0.58934 9.48935,-2.51836 21.34932,-7.8182 29.06041,-12.98617 2.7901,-1.86993 32.44293,-30.69934 65.89518,-64.06536 l 60.82224,-60.6655 41.57775,41.62517 c 22.86775,22.89385 41.70103,41.98816 41.85173,42.4318 0.15069,0.44363 -27.92931,28.9162 -62.39999,63.27234 -45.07145,44.92168 -65.52003,64.56174 -72.80733,69.92859 -29.31902,21.59244 -60.24037,34.54854 -96.3049,40.3519 -9.13083,1.46929 -38.00732,2.81676 -43.96176,2.05139 z m 38.79613,-199.90821 c 0.56573,-1.46667 7.05071,-16.10667 14.41107,-32.53333 l 13.38249,-29.86667 -19.70275,-0.53333 -19.70276,-0.53333 41.65747,-41.6 c 22.91162,-22.88 41.20488,-40.37948 40.65169,-38.88773 -0.55317,1.49174 -6.57548,16.00291 -13.38289,32.24703 -6.80741,16.24412 -12.37712,29.77253 -12.37712,30.06312 0,0.29059 8.4031,0.65942 18.67355,0.81964 l 18.67355,0.29127 -41.65644,41.6 c -22.91105,22.88 -41.19358,40.4 -40.62786,38.93333 z m 212.8189,-30.97012 c -2.63775,-0.99736 -3.81272,-3.46685 -2.9007,-6.09655 0.35606,-1.02666 3.55326,-4.85267 7.10488,-8.50222 l 6.45749,-6.63557 -7.13835,-7.39405 c -3.92609,-4.06674 -7.13836,-7.81392 -7.13836,-8.3271 0,-2.15635 3.49282,-5.67439 5.63372,-5.67439 1.41886,0 5.01449,2.68106 9.30295,6.93665 l 6.99022,6.93665 6.33649,-6.40331 c 3.79233,-3.83231 7.24716,-6.40332 8.60457,-6.40332 2.43315,0 5.79871,3.04303 5.79871,5.24298 0,0.73792 -2.97087,4.43553 -6.60193,8.2169 l -6.60194,6.87522 6.71359,6.77381 c 5.67577,5.72666 6.59371,7.16418 5.93806,9.29911 -2.17065,7.06807 -4.41364,6.77677 -13.21029,-1.71568 l -7.15509,-6.90765 -6.3412,6.45172 c -7.50409,7.63487 -8.81841,8.45146 -11.79282,7.3268 z M 232.94836,98.096542 c -2.63775,-0.997359 -3.81272,-3.466852 -2.9007,-6.096548 0.35606,-1.026666 3.55326,-4.85267 7.10488,-8.502229 l 6.45749,-6.635565 -7.13835,-7.394056 c -3.92609,-4.06673 -7.13836,-7.813924 -7.13836,-8.327095 0,-2.156349 3.49282,-5.674386 5.63372,-5.674386 1.41885,0 5.01449,2.681053 9.30295,6.936648 l 6.99022,6.936649 6.33649,-6.403315 c 3.79233,-3.832312 7.24716,-6.403315 8.60457,-6.403315 2.43315,0 5.79871,3.043026 5.79871,5.24298 0,0.737918 -2.97087,4.435521 -6.60193,8.216897 l -6.60194,6.875231 6.71359,6.773798 c 5.67577,5.726669 6.59371,7.164174 5.93806,9.299112 -2.17065,7.068082 -4.41364,6.776772 -13.21029,-1.715676 l -7.15509,-6.907654 -6.3412,6.451722 c -7.50409,7.634876 -8.81841,8.451458 -11.79282,7.326802 z"
       id="path896" />
    <path
       style="display:none;fill:#b4e0e3;stroke-width:1.06667"
       d="M 195.73332,545.34031 C 154.98591,542.22823 111.19428,525.29633 82.052615,501.38601 37.76724,465.05049 11.263331,419.86767 2.5341377,365.82604 0.0566841,350.48835 0.06299611,317.0474 2.5461081,302.40652 8.7545223,265.80058 22.167767,234.6667 44.5974,204.79999 c 3.304361,-4.4 34.09113,-36.20985 68.41504,-70.68854 l 62.40711,-62.688541 42.14976,42.149761 42.14976,42.14976 -60.91522,61.07211 c -33.50337,33.58966 -62.35634,63.23211 -64.11772,65.87211 -14.32278,21.46728 -19.02376,48.74467 -12.69706,73.67448 9.57356,37.72378 40.7176,64.7174 80.01528,69.35204 21.02907,2.48009 42.99746,-2.99309 61.4623,-15.31266 2.64,-1.76139 32.16393,-30.49591 65.60874,-63.8545 l 60.80874,-60.652 42.12459,42.14463 42.12458,42.14462 -62.39999,62.25255 c -47.02214,46.91103 -65.08558,64.23618 -73.29747,70.3017 -30.00776,22.16447 -61.58246,35.37215 -97.44559,40.76144 -10.39489,1.56209 -35.6014,2.5988 -45.25693,1.86136 z m 40.92946,-199.74033 c 0.56573,-1.46667 7.05071,-16.10667 14.41107,-32.53333 l 13.38249,-29.86667 -19.70275,-0.53333 -19.70276,-0.53333 41.65747,-41.6 c 22.91162,-22.88 41.20488,-40.37948 40.65169,-38.88773 -0.55317,1.49174 -6.57548,16.00291 -13.38289,32.24703 -6.80741,16.24412 -12.37712,29.77253 -12.37712,30.06312 0,0.29059 8.4031,0.65942 18.67355,0.81964 l 18.67355,0.29127 -41.65644,41.6 c -22.91105,22.88 -41.19358,40.4 -40.62786,38.93333 z m 210.98164,-31.64445 c -0.39111,-0.3911 -0.71111,-1.96497 -0.71111,-3.49747 0,-2.01357 1.92354,-4.69282 6.93536,-9.66008 l 6.93534,-6.87371 -6.93534,-6.98892 c -7.67797,-7.73724 -9.10399,-12.06465 -4.53536,-13.76291 3.47203,-1.29063 4.85036,-0.54031 12.26666,6.67759 l 6.66667,6.48832 6.69537,-6.63585 c 7.20172,-7.13771 9.34805,-7.92403 11.85597,-4.34349 2.13358,3.04614 0.50948,6.21708 -6.58148,12.84984 l -5.28308,4.9417 6.25661,6.19133 c 5.05565,5.00289 6.25661,6.85107 6.25661,9.62843 0,7.22981 -4.79411,6.56433 -13.36311,-1.85499 l -6.42976,-6.31745 -6.87275,6.93439 c -4.96648,5.01101 -7.6456,6.93439 -9.65913,6.93439 -1.5325,0 -3.10637,-0.32 -3.49747,-0.71112 z M 231.1111,97.422216 c -0.39111,-0.39111 -0.71111,-1.964977 -0.71111,-3.49748 0,-2.013561 1.92354,-4.692818 6.93536,-9.66008 l 6.93534,-6.87371 -6.93534,-6.988911 c -7.67797,-7.737247 -9.10399,-12.064655 -4.53536,-13.762916 3.47203,-1.290631 4.85036,-0.540309 12.26666,6.677593 l 6.66667,6.488322 6.69537,-6.635852 c 7.20172,-7.137712 9.34805,-7.92403 11.85597,-4.343485 2.13358,3.046126 0.50948,6.217074 -6.58148,12.849828 l -5.28308,4.941708 6.25661,6.191323 c 5.05565,5.002898 6.25661,6.851078 6.25661,9.62843 0,7.229818 -4.79411,6.564328 -13.36311,-1.854984 l -6.42976,-6.317456 -6.87275,6.934391 c -4.96648,5.011013 -7.6456,6.93439 -9.65913,6.93439 -1.5325,0 -3.10637,-0.32 -3.49747,-0.711111 z"
       id="path894" />
    <path
       style="display:none;fill:#abdae4;stroke-width:1.06667"
       d="M 196.79999,545.35469 C 157.81981,541.66703 125.08326,530.61034 95.466661,511.12962 81.538649,501.96828 64.381356,486.53851 51.158333,471.2826 25.101041,441.21928 8.4219955,404.20107 1.9796753,362.13331 0.07322819,349.68438 0.39784123,316.54218 2.559115,302.97392 7.0050336,275.0629 15.745816,250.8184 30.110174,226.55496 43.516024,203.91058 49.068431,197.74063 118.08161,128.7993 l 57.39378,-57.334032 42.12015,42.130282 42.12015,42.13026 -60.91353,61.07042 c -33.50244,33.58874 -62.35465,63.23042 -64.11603,65.87042 -25.63458,38.42167 -18.87347,90.73335 15.52746,120.13802 10.7376,9.17811 19.87899,14.49452 31.70491,18.43879 27.94032,9.31888 57.12637,5.43103 81.54815,-10.86295 2.64,-1.76139 32.16393,-30.49591 65.60874,-63.8545 l 60.80874,-60.652 42.12459,42.14463 42.12458,42.14462 -62.39999,62.22104 c -37.94936,37.84052 -65.91923,64.86593 -71.38136,68.97102 -37.92149,28.50004 -79.78413,43.21007 -125.30542,44.03081 -8.2756,0.14921 -16.48654,0.13505 -18.24654,-0.0315 z m 39.86279,-199.75471 c 0.56573,-1.46667 7.05071,-16.10667 14.41107,-32.53333 l 13.38249,-29.86667 -19.70275,-0.53333 -19.70276,-0.53333 41.65747,-41.6 c 22.91162,-22.88 41.20488,-40.37948 40.65169,-38.88773 -0.55317,1.49174 -6.57548,16.00291 -13.38289,32.24703 -6.80741,16.24412 -12.37712,29.77253 -12.37712,30.06312 0,0.29059 8.4031,0.65942 18.67355,0.81964 l 18.67355,0.29127 -41.65644,41.6 c -22.91105,22.88 -41.19358,40.4 -40.62786,38.93333 z m 210.98164,-31.64445 c -0.39111,-0.3911 -0.71111,-1.96497 -0.71111,-3.49747 0,-2.01357 1.92354,-4.69282 6.93536,-9.66008 l 6.93534,-6.87371 -6.93534,-6.98892 c -6.84307,-6.8959 -8.23958,-10.00449 -5.65536,-12.5887 2.80635,-2.80636 6.32349,-1.3407 13.13975,5.47555 l 6.75555,6.75556 6.87199,-6.87199 c 5.52771,-5.52771 7.31627,-6.73097 9.1432,-6.15112 1.24916,0.39647 2.5753,1.93242 2.94695,3.41322 0.571,2.27502 -0.33864,3.71582 -5.8684,9.29518 l -6.54415,6.60284 6.40422,6.68857 c 3.52232,3.67871 6.40422,7.58461 6.40422,8.6798 0,7.74269 -4.94496,7.27953 -13.57242,-1.27124 l -6.69648,-6.63695 -7.22565,7.17028 c -6.6267,6.57593 -10.291,8.49587 -12.32767,6.45918 z M 231.1111,97.422216 c -0.39111,-0.39111 -0.71111,-1.964977 -0.71111,-3.49748 0,-2.013561 1.92354,-4.692818 6.93536,-9.66008 l 6.93534,-6.87371 -6.93534,-6.988911 c -6.84307,-6.895904 -8.23958,-10.004494 -5.65536,-12.588705 2.80635,-2.806353 6.32349,-1.3407 13.13975,5.475555 l 6.75555,6.755556 6.87199,-6.871985 c 5.52771,-5.527717 7.31627,-6.730974 9.1432,-6.151128 1.24916,0.39647 2.5753,1.932417 2.94695,3.413214 0.571,2.275029 -0.33864,3.715836 -5.8684,9.295193 l -6.54415,6.602834 6.40422,6.688566 c 3.52232,3.678713 6.40422,7.584625 6.40422,8.679807 0,7.742694 -4.94496,7.279533 -13.57242,-1.271236 l -6.69648,-6.636955 -7.22565,7.170289 c -6.6267,6.575915 -10.291,8.495853 -12.32767,6.459176 z"
       id="path892" />
    <path
       style="display:none;fill:#91c8d9;stroke-width:1.06667"
       d="m 197.33332,545.37352 c -33.53616,-3.78717 -52.126,-8.64024 -75.89543,-19.81327 C 99.789392,515.38418 84.685216,504.81183 66.286093,486.95611 46.950879,468.19193 34.747146,451.78832 23.019893,428.79997 12.911629,408.98524 6.4638168,388.81611 2.559915,364.79998 0.37404054,351.35285 0.06617642,319.44836 1.9989542,306.66665 7.8082638,268.24891 22.363386,233.86715 45.495801,203.91946 49.47203,198.77175 79.878302,167.32733 114.03087,133.04442 l 61.38795,-61.62224 42.14175,42.14176 42.14177,42.14176 -62.47603,62.68047 -62.47601,62.68048 -5.53225,11.2 c -7.43431,15.05074 -9.87239,24.9937 -9.93903,40.53333 -0.0307,7.16938 0.62159,15.3999 1.56986,19.80683 6.89022,32.02139 30.37209,58.4241 61.01778,68.60753 21.93742,7.28972 43.20442,6.74643 64.37698,-1.64458 15.42289,-6.11233 18.86749,-9.14793 82.83175,-72.99676 l 60.80874,-60.69899 42.12459,42.14463 42.12458,42.14462 -62.39999,62.22104 c -37.94936,37.84052 -65.91923,64.86593 -71.38136,68.97102 -37.73843,28.36246 -79.98068,43.19608 -125.41863,44.04149 -8.21333,0.15282 -16.13333,0.14234 -17.6,-0.0232 z m 39.32946,-199.77354 c 0.56573,-1.46667 7.05071,-16.10667 14.41107,-32.53333 l 13.38249,-29.86667 -19.70275,-0.53333 -19.70276,-0.53333 41.65747,-41.6 c 22.91162,-22.88 41.20488,-40.37948 40.65169,-38.88773 -0.55317,1.49174 -6.57548,16.00291 -13.38289,32.24703 -6.80741,16.24412 -12.37712,29.77253 -12.37712,30.06312 0,0.29059 8.4031,0.65942 18.67355,0.81964 l 18.67355,0.29127 -41.65644,41.6 c -22.91105,22.88 -41.19358,40.4 -40.62786,38.93333 z m 211.55053,-32.21333 c -2.63013,-2.63012 -1.22286,-5.7716 5.6264,-12.55998 l 6.90641,-6.84501 -6.90641,-7.15379 c -6.81633,-7.06051 -8.13093,-9.9767 -5.6264,-12.48122 2.63012,-2.63012 5.77159,-1.22286 12.55997,5.6264 l 6.84502,6.90641 7.15379,-6.90641 c 3.93458,-3.79852 7.60607,-6.9064 8.15885,-6.9064 1.46193,0 4.5357,3.65179 4.5357,5.38863 0,0.81801 -2.98614,4.50022 -6.63585,8.18267 l -6.63585,6.69537 6.63585,6.69537 c 6.55041,6.60916 7.91237,9.73477 5.35585,12.29129 -2.55381,2.5538 -5.68125,1.19545 -12.2602,-5.32502 l -6.66426,-6.60503 -7.39406,7.13836 c -7.49026,7.23123 -9.34809,8.16508 -11.65481,5.85836 z M 231.67999,96.853327 c -2.63013,-2.630122 -1.22286,-5.771593 5.6264,-12.559975 l 6.90641,-6.845014 -6.90641,-7.153792 c -6.81633,-7.060499 -8.13093,-9.976693 -5.6264,-12.481216 2.63012,-2.630123 5.77159,-1.222861 12.55997,5.626403 l 6.84502,6.906404 7.15379,-6.906404 c 3.93458,-3.798522 7.60607,-6.906403 8.15885,-6.906403 1.46193,0 4.5357,3.651788 4.5357,5.388624 0,0.818021 -2.98614,4.500225 -6.63585,8.182676 l -6.63585,6.695365 6.63585,6.695365 c 6.55041,6.609164 7.91237,9.734773 5.35585,12.291301 -2.55381,2.553804 -5.68125,1.19545 -12.26021,-5.325026 l -6.66425,-6.605026 -7.39406,7.138359 c -7.49026,7.231235 -9.34809,8.165085 -11.65481,5.858359 z"
       id="path890" />
    <path
       style="display:none;fill:#94bcc9;stroke-width:1.06667"
       d="M 197.33332,545.35491 C 165.39248,541.97077 145.20338,536.70939 121.43789,525.57618 79.102618,505.74376 41.873353,468.40737 21.21671,425.06664 6.8417407,394.9058 0.86423318,368.27707 0.86423318,334.39998 c 0,-39.72927 8.83614622,-72.44568 28.95289782,-107.19999 12.153453,-20.99669 19.045097,-28.69087 85.292409,-95.22492 l 60.29727,-60.558249 41.87205,41.861989 41.87205,41.86199 -60.04548,60.29625 c -43.75604,43.9388 -61.40792,62.37119 -65.06764,67.94476 -10.22601,15.5737 -15.03048,31.99684 -14.92499,51.01817 0.15255,27.50406 10.87857,51.11974 31.04853,68.3601 10.78851,9.22152 19.92597,14.54002 31.70533,18.45426 22.04844,7.32662 43.09726,6.7889 64.37698,-1.64458 15.42289,-6.11233 18.86749,-9.14793 82.83175,-72.99676 l 60.80874,-60.69899 42.12459,42.14463 42.12458,42.14462 -62.39999,62.22104 c -37.94936,37.84052 -65.91923,64.86593 -71.38136,68.97102 -37.74938,28.37069 -80.14445,43.25302 -125.41863,44.02688 -8.21333,0.14038 -16.13333,0.1281 -17.6,-0.0273 z m 39.32946,-199.75493 c 0.56573,-1.46667 7.05071,-16.10667 14.41107,-32.53333 l 13.38249,-29.86667 -19.70275,-0.53333 -19.70276,-0.53333 41.65747,-41.6 c 22.91162,-22.88 41.20488,-40.37948 40.65169,-38.88773 -0.55317,1.49174 -6.57548,16.00291 -13.38289,32.24703 -6.80741,16.24412 -12.37712,29.77253 -12.37712,30.06312 0,0.29059 8.4031,0.65942 18.67355,0.81964 l 18.67355,0.29127 -41.65644,41.6 c -22.91105,22.88 -41.19358,40.4 -40.62786,38.93333 z m 211.55053,-32.21333 c -2.60183,-2.60183 -1.18189,-5.69867 5.87227,-12.8073 l 7.15228,-7.20751 -7.15228,-7.18747 c -7.15585,-7.19106 -8.27097,-9.43902 -5.87227,-11.83772 2.63012,-2.63012 5.77159,-1.22286 12.55997,5.6264 l 6.84502,6.90641 7.15379,-6.90641 c 3.93458,-3.79852 7.60607,-6.9064 8.15885,-6.9064 1.46193,0 4.5357,3.65179 4.5357,5.38863 0,0.81801 -2.98614,4.50022 -6.63585,8.18267 l -6.63585,6.69537 6.63585,6.69537 c 6.55041,6.60916 7.91237,9.73477 5.35585,12.29129 -2.38791,2.3879 -4.66578,1.29377 -11.5665,-5.55575 l -6.88684,-6.83576 -7.61964,7.36909 c -7.70284,7.44954 -9.57961,8.40983 -11.90035,6.08909 z M 231.67999,96.853327 c -2.60183,-2.60182 -1.18189,-5.698667 5.87227,-12.807299 l 7.15228,-7.207506 -7.15228,-7.187477 c -7.15585,-7.191065 -8.27097,-9.439015 -5.87227,-11.837715 2.63012,-2.630123 5.77159,-1.222861 12.55997,5.626403 l 6.84502,6.906404 7.15379,-6.906404 c 3.93458,-3.798522 7.60607,-6.906403 8.15885,-6.906403 1.46193,0 4.5357,3.651788 4.5357,5.388624 0,0.818021 -2.98614,4.500225 -6.63585,8.182676 l -6.63585,6.695365 6.63585,6.695365 c 6.55041,6.609164 7.91237,9.734773 5.35585,12.291301 -2.38791,2.387908 -4.66578,1.293774 -11.5665,-5.555755 l -6.88684,-6.835753 -7.61964,7.369087 c -7.70284,7.449536 -9.57961,8.409831 -11.90035,6.089087 z"
       id="path888" />
    <path
       style="display:none;fill:#65d0db;stroke-width:1.06667"
       d="M 197.33332,545.33617 C 160.0941,541.65236 131.24274,532.65168 103.71446,516.13014 69.245228,495.44287 38.676799,461.70053 21.21671,425.06664 6.8417407,394.9058 0.86423318,368.27707 0.86423318,334.39998 c 0,-39.72927 8.83614622,-72.44568 28.95289782,-107.19999 12.153453,-20.99669 19.045097,-28.69087 85.292409,-95.22492 l 60.29727,-60.558249 41.87205,41.861989 41.87205,41.86199 -60.04548,60.29625 c -63.02456,63.28778 -66.768,67.53782 -73.17716,83.08018 -10.59939,25.7038 -8.90741,56.37248 4.42064,80.12799 14.44563,25.74748 40.37961,43.00235 70.66106,47.0135 22.03406,2.91867 46.60048,-3.43311 64.63996,-16.71303 3.70636,-2.72846 33.31335,-31.39467 65.79331,-63.7027 l 59.05449,-58.74186 41.8151,41.81511 41.81511,41.8151 -58.13065,58.21795 c -31.97185,32.01987 -62.66979,62.03722 -68.21764,66.70523 -38.03208,32.00052 -84.17574,49.39715 -133.37966,50.28547 -7.92,0.14298 -15.6,0.14127 -17.06667,-0.004 z m 39.32946,-199.73619 c 0.56573,-1.46667 7.05071,-16.10667 14.41107,-32.53333 l 13.38249,-29.86667 -19.70275,-0.53333 -19.70276,-0.53333 41.65747,-41.6 c 22.91162,-22.88 41.20488,-40.37948 40.65169,-38.88773 -0.55317,1.49174 -6.57548,16.00291 -13.38289,32.24703 -6.80741,16.24412 -12.37712,29.77253 -12.37712,30.06312 0,0.29059 8.4031,0.65942 18.67355,0.81964 l 18.67355,0.29127 -41.65644,41.6 c -22.91105,22.88 -41.19358,40.4 -40.62786,38.93333 z m 211.55053,-32.21333 c -2.60183,-2.60183 -1.18189,-5.69867 5.87227,-12.8073 l 7.15228,-7.20751 -7.15228,-7.18747 c -7.15585,-7.19106 -8.27097,-9.43902 -5.87227,-11.83772 2.63012,-2.63012 5.77159,-1.22286 12.55997,5.6264 l 6.84502,6.90641 7.15379,-6.90641 c 3.93458,-3.79852 7.60607,-6.9064 8.15885,-6.9064 1.46193,0 4.5357,3.65179 4.5357,5.38863 0,0.81801 -2.98614,4.50022 -6.63585,8.18267 l -6.63585,6.69537 6.63585,6.69537 c 6.55041,6.60916 7.91237,9.73477 5.35585,12.29129 -2.38791,2.3879 -4.66578,1.29377 -11.5665,-5.55575 l -6.88684,-6.83576 -7.61964,7.36909 c -7.70284,7.44954 -9.57961,8.40983 -11.90035,6.08909 z M 231.67999,96.853327 c -2.60183,-2.60182 -1.18189,-5.698667 5.87227,-12.807299 l 7.15228,-7.207506 -7.15228,-7.187477 c -7.15585,-7.191065 -8.27097,-9.439015 -5.87227,-11.837715 2.63012,-2.630123 5.77159,-1.222861 12.55997,5.626403 l 6.84502,6.906404 7.15379,-6.906404 c 3.93458,-3.798522 7.60607,-6.906403 8.15885,-6.906403 1.46193,0 4.5357,3.651788 4.5357,5.388624 0,0.818021 -2.98614,4.500225 -6.63585,8.182676 l -6.63585,6.695365 6.63585,6.695365 c 6.55041,6.609164 7.91237,9.734773 5.35585,12.291301 -2.38791,2.387908 -4.66578,1.293774 -11.5665,-5.555755 l -6.88684,-6.835753 -7.61964,7.369087 c -7.70284,7.449536 -9.57961,8.409831 -11.90035,6.089087 z"
       id="path886" />
    <path
       style="display:inline;fill:#63b4cf;stroke-width:1.06667"
       d="M 197.33332,545.33617 C 143.00934,539.96229 102.01822,521.71888 66.281564,487.01057 31.203715,452.94212 9.9812354,412.19196 2.5950808,364.72357 c -2.32297188,-14.92898 -2.32297188,-45.7182 0,-60.64718 4.3789647,-28.14218 12.8335982,-52.01847 27.2220502,-76.8764 12.153453,-20.99669 19.045097,-28.69087 85.292409,-95.22492 l 60.29727,-60.558249 41.87205,41.861989 41.87205,41.86199 -60.04548,60.29625 c -63.02456,63.28778 -66.768,67.53782 -73.17716,83.08018 -10.59939,25.7038 -8.90741,56.37248 4.42064,80.12799 14.44563,25.74748 40.37961,43.00235 70.66106,47.0135 22.03406,2.91867 46.60048,-3.43311 64.63996,-16.71303 3.70636,-2.72846 33.31335,-31.39467 65.79331,-63.7027 l 59.05449,-58.74186 41.8151,41.81511 41.81511,41.8151 -58.13065,58.21795 c -31.97185,32.01987 -62.66979,62.03722 -68.21764,66.70523 -38.03208,32.00052 -84.17574,49.39715 -133.37966,50.28547 -7.92,0.14298 -15.6,0.14127 -17.06667,-0.004 z m 39.34415,-199.73619 c 0.57379,-1.46667 7.05388,-16.10667 14.40017,-32.53333 l 13.3569,-29.86667 -19.69185,-0.53333 -19.69186,-0.53333 41.65747,-41.6 c 22.91162,-22.88 41.20488,-40.37948 40.65169,-38.88773 -0.55317,1.49174 -6.57548,16.00291 -13.38289,32.24703 -6.80741,16.24412 -12.37712,29.77253 -12.37712,30.06312 0,0.29059 8.4031,0.65942 18.67355,0.81964 l 18.67355,0.29127 -41.65644,41.6 c -22.91105,22.88 -41.18697,40.4 -40.61317,38.93333 z m 210.96695,-32.71111 c -1.93715,-1.93714 -0.0724,-5.49127 6.39722,-12.1926 l 7.10833,-7.36295 -7.19019,-7.44775 c -7.73455,-8.0116 -8.4473,-10.48031 -3.52552,-12.2112 2.73478,-0.96177 3.46557,-0.52165 10.15307,6.1146 l 7.2062,7.15098 6.33649,-6.40332 c 7.09033,-7.16509 10.44933,-8.15844 12.48439,-3.69197 1.15326,2.53113 0.78157,3.16922 -5.59205,9.59999 l -6.82742,6.88867 6.63585,6.69537 c 6.55041,6.60916 7.91237,9.73477 5.35585,12.29129 -2.29708,2.29708 -4.15673,1.38044 -11.41455,-5.6264 l -7.15379,-6.90641 -6.84502,6.90641 c -4.94358,4.98792 -7.61902,6.9064 -9.63139,6.9064 -1.5325,0 -3.10637,-0.32 -3.49747,-0.71111 z M 231.1111,96.355549 c -1.93715,-1.937147 -0.0724,-5.491268 6.39722,-12.192601 l 7.10833,-7.362953 -7.19019,-7.447742 c -7.73455,-8.011602 -8.4473,-10.48031 -3.52552,-12.211204 2.73478,-0.96177 3.46557,-0.521655 10.15307,6.114606 l 7.2062,7.150971 6.33649,-6.403315 c 7.09033,-7.165098 10.44933,-8.158443 12.48439,-3.691971 1.15326,2.531128 0.78157,3.169216 -5.59205,9.6 l -6.82742,6.888655 6.63585,6.695365 c 6.55041,6.609164 7.91237,9.734773 5.35585,12.291301 -2.29708,2.297081 -4.15673,1.380435 -11.41455,-5.626403 l -7.15379,-6.906404 -6.84502,6.906404 c -4.94358,4.987919 -7.61903,6.906403 -9.63139,6.906403 -1.5325,0 -3.10637,-0.32 -3.49747,-0.711112 z"
       id="path884" />
    <path
       style="display:inline;fill:#609cb0;stroke-width:1.06667"
       d="M 196.26665,545.31326 C 180.76324,544.12263 156.52159,538.98684 140.79999,533.56219 89.961488,516.02065 44.408521,474.32772 20.511528,423.46664 0.37843214,380.61645 -4.5131149,331.7298 6.5833198,284.26665 13.044949,256.62811 28.973816,224.63271 47.738814,201.59999 c 3.584724,-4.4 33.909603,-35.35806 67.388616,-68.79568 l 60.87094,-60.795677 41.58441,41.574157 41.58441,41.57416 -60.58913,60.82151 c -37.23432,37.37713 -62.13714,63.20379 -64.60512,67.00182 -5.36523,8.25665 -9.93253,18.52843 -12.62207,28.38675 -3.1809,11.65938 -3.13123,33.5 0.10336,45.43295 10.13633,37.39504 40.54415,63.7161 79.55578,68.86363 22.04894,2.90933 46.60563,-3.4418 64.63996,-16.71792 3.70637,-2.72846 33.31335,-31.39467 65.79332,-63.7027 l 59.05448,-58.74186 41.8151,41.81511 41.81511,41.8151 -58.13065,58.21795 c -31.97185,32.01987 -62.61675,61.99295 -68.09978,66.60685 -31.72885,26.69945 -69.8988,43.52623 -111.09752,48.97601 -8.72644,1.15434 -32.80362,1.97473 -40.53333,1.38111 z m 40.41082,-199.71328 c 0.57379,-1.46667 7.05388,-16.10667 14.40017,-32.53333 l 13.3569,-29.86667 -19.69185,-0.53333 -19.69186,-0.53333 41.65747,-41.6 c 22.91162,-22.88 41.20488,-40.37948 40.65169,-38.88773 -0.55317,1.49174 -6.57548,16.00291 -13.38289,32.24703 -6.80741,16.24412 -12.37712,29.77253 -12.37712,30.06312 0,0.29059 8.4031,0.65942 18.67355,0.81964 l 18.67355,0.29127 -41.65644,41.6 c -22.91105,22.88 -41.18697,40.4 -40.61317,38.93333 z m 210.96695,-32.71111 c -1.93715,-1.93714 -0.0724,-5.49127 6.39722,-12.1926 l 7.10833,-7.36295 -7.19019,-7.44775 c -7.73455,-8.0116 -8.4473,-10.48031 -3.52552,-12.2112 2.73478,-0.96177 3.46557,-0.52165 10.15307,6.1146 l 7.2062,7.15098 6.33649,-6.40332 c 7.09033,-7.16509 10.44933,-8.15844 12.48439,-3.69197 1.15326,2.53113 0.78157,3.16922 -5.59205,9.59999 l -6.82742,6.88867 6.63585,6.69537 c 6.55041,6.60916 7.91237,9.73477 5.35585,12.29129 -2.29708,2.29708 -4.15673,1.38044 -11.41455,-5.6264 l -7.15379,-6.90641 -6.84502,6.90641 c -4.94358,4.98792 -7.61902,6.9064 -9.63139,6.9064 -1.5325,0 -3.10637,-0.32 -3.49747,-0.71111 z M 231.1111,96.355549 c -1.93715,-1.937147 -0.0724,-5.491268 6.39722,-12.192601 l 7.10833,-7.362953 -7.19019,-7.447742 c -7.73455,-8.011602 -8.4473,-10.48031 -3.52552,-12.211204 2.73478,-0.96177 3.46557,-0.521655 10.15307,6.114606 l 7.2062,7.150971 6.33649,-6.403315 c 7.09033,-7.165098 10.44933,-8.158443 12.48439,-3.691971 1.15326,2.531128 0.78157,3.169216 -5.59205,9.6 l -6.82742,6.888655 6.63585,6.695365 c 6.55041,6.609164 7.91237,9.734773 5.35585,12.291301 -2.29708,2.297081 -4.15673,1.380435 -11.41455,-5.626403 l -7.15379,-6.906404 -6.84502,6.906404 c -4.94358,4.987919 -7.61903,6.906403 -9.63139,6.906403 -1.5325,0 -3.10637,-0.32 -3.49747,-0.711112 z"
       id="path882" />
    <path
       style="display:inline;fill:#08c5d5;stroke-width:1.06667"
       d="M 197.33332,545.32002 C 165.59729,541.9884 142.70056,535.855 119.32453,524.42361 76.903808,503.67893 40.930345,466.92495 20.511528,423.46664 0.37843214,380.61645 -4.5131149,331.7298 6.5833198,284.26665 13.044949,256.62811 28.973816,224.63271 47.738814,201.59999 c 3.584724,-4.4 33.909603,-35.35806 67.388616,-68.79568 l 60.87094,-60.795677 41.58441,41.574157 41.58441,41.57416 -60.58913,60.82151 c -37.23432,37.37713 -62.13714,63.20379 -64.60512,67.00182 -5.36523,8.25665 -9.93253,18.52843 -12.62207,28.38675 -3.1809,11.65938 -3.13123,33.5 0.10336,45.43295 3.87262,14.28689 12.25517,29.70738 21.74392,40 3.29133,3.57017 16.38298,13.99853 21.20637,16.89227 24.1041,14.46099 58.74121,16.48313 84.81603,4.9516 14.23311,-6.29456 19.7458,-11.21029 81.20627,-72.4124 l 60.0268,-59.77448 41.83986,41.85988 41.83982,41.85988 -61.33333,61.13865 c -38.47392,38.35179 -65.05021,63.98635 -71.306,68.77925 -29.58797,22.66899 -62.603,37.07943 -98.29398,42.90348 -7.6679,1.25124 -40.31999,2.90419 -45.86667,2.32191 z m 39.34415,-199.72004 c 0.57379,-1.46667 7.05388,-16.10667 14.40017,-32.53333 l 13.3569,-29.86667 -19.69185,-0.53333 -19.69186,-0.53333 41.65747,-41.6 c 22.91162,-22.88 41.20488,-40.37948 40.65169,-38.88773 -0.55317,1.49174 -6.57548,16.00291 -13.38289,32.24703 -6.80741,16.24412 -12.37712,29.77253 -12.37712,30.06312 0,0.29059 8.4031,0.65942 18.67355,0.81964 l 18.67355,0.29127 -41.65644,41.6 c -22.91105,22.88 -41.18697,40.4 -40.61317,38.93333 z m 210.96695,-32.71111 c -1.93715,-1.93714 -0.0724,-5.49127 6.39722,-12.1926 l 7.10833,-7.36295 -7.19019,-7.44775 c -7.73455,-8.0116 -8.4473,-10.48031 -3.52552,-12.2112 2.73478,-0.96177 3.46557,-0.52165 10.15307,6.1146 l 7.2062,7.15098 6.33649,-6.40332 c 7.09033,-7.16509 10.44933,-8.15844 12.48439,-3.69197 1.15326,2.53113 0.78157,3.16922 -5.59205,9.59999 l -6.82742,6.88867 6.63585,6.69537 c 6.55041,6.60916 7.91237,9.73477 5.35585,12.29129 -2.29708,2.29708 -4.15673,1.38044 -11.41455,-5.6264 l -7.15379,-6.90641 -6.84502,6.90641 c -4.94358,4.98792 -7.61902,6.9064 -9.63139,6.9064 -1.5325,0 -3.10637,-0.32 -3.49747,-0.71111 z M 231.1111,96.355549 c -1.93715,-1.937147 -0.0724,-5.491268 6.39722,-12.192601 l 7.10833,-7.362953 -7.19019,-7.447742 c -7.73455,-8.011602 -8.4473,-10.48031 -3.52552,-12.211204 2.73478,-0.96177 3.46557,-0.521655 10.15307,6.114606 l 7.2062,7.150971 6.33649,-6.403315 c 7.09033,-7.165098 10.44933,-8.158443 12.48439,-3.691971 1.15326,2.531128 0.78157,3.169216 -5.59205,9.6 l -6.82742,6.888655 6.63585,6.695365 c 6.55041,6.609164 7.91237,9.734773 5.35585,12.291301 -2.29708,2.297081 -4.15673,1.380435 -11.41455,-5.626403 l -7.15379,-6.906404 -6.84502,6.906404 c -4.94358,4.987919 -7.61903,6.906403 -9.63139,6.906403 -1.5325,0 -3.10637,-0.32 -3.49747,-0.711112 z"
       id="path880" />
    <path
       style="display:inline;fill:#2fa4c2;stroke-width:1.06667"
       d="M 178.66666,542.95234 C 143.46521,537.26102 113.52205,524.65289 85.445477,503.69977 74.808455,495.76152 52.22237,473.19839 43.999577,462.296 5.246568,410.91437 -8.1374416,347.23226 6.5833198,284.26665 13.044949,256.62811 28.973816,224.63271 47.738814,201.59999 c 3.584724,-4.4 33.909603,-35.35806 67.388616,-68.79568 l 60.87094,-60.795677 41.58441,41.574157 41.58441,41.57416 -60.58913,60.82151 c -37.23432,37.37713 -62.13714,63.20379 -64.60512,67.00182 -5.36523,8.25665 -9.93253,18.52843 -12.62207,28.38675 -3.1809,11.65938 -3.13123,33.5 0.10336,45.43295 3.87262,14.28689 12.25517,29.70738 21.74392,40 3.29133,3.57017 16.38298,13.99853 21.20637,16.89227 24.1041,14.46099 58.74121,16.48313 84.81603,4.9516 14.23311,-6.29456 19.7458,-11.21029 81.20627,-72.4124 l 60.0268,-59.77448 41.83703,41.83705 41.83703,41.83703 -53.86382,53.95877 c -47.09558,47.17859 -67.22019,66.68922 -76.88428,74.53867 -4.7887,3.88953 -18.56742,13.61689 -20.17956,14.24617 -0.88,0.34348 -3.63699,1.99919 -6.12665,3.67931 -11.08319,7.47943 -37.69284,18.18406 -57.34001,23.06695 -22.78136,5.66183 -57.7616,7.09933 -81.06666,3.33142 z"
       id="path878" />
    <path
       style="fill:#2596ba;stroke-width:1.06667"
       d="M 178.66666,542.95234 C 148.44658,538.06641 119.88193,527.01953 95.835004,510.91866 82.308929,501.86212 76.168677,496.69297 62.386438,482.76008 29.463083,449.47684 9.8599418,410.29382 2.6842714,363.42661 0.41892783,348.63074 0.37044287,320.10899 2.5858017,305.5008 8.4318892,266.95142 23.494075,231.97822 46.582821,203.34322 c 4.793886,-5.94544 35.873527,-37.92794 69.065869,-71.07223 l 60.34971,-60.262326 41.58853,41.578276 41.58852,41.57827 -60.60057,60.81738 c -68.36003,68.6046 -69.66154,70.18506 -76.605,93.02276 -2.51718,8.27927 -2.85511,11.16756 -2.8464,24.32796 0.0113,17.00004 1.96484,26.34546 8.30459,39.72708 6.68895,14.11868 13.4166,22.61867 25.53009,32.25577 9.48088,7.54268 13.38642,9.90225 22.84841,13.80406 23.26413,9.59334 51.05222,9.41303 73.41394,-0.47637 14.23311,-6.29456 19.7458,-11.21029 81.20626,-72.4124 l 60.02681,-59.77448 41.83703,41.83705 41.83703,41.83703 -53.86383,53.95877 c -47.09558,47.17859 -67.22018,66.68922 -76.88427,74.53867 -4.7887,3.88953 -18.56742,13.61689 -20.17956,14.24617 -0.88,0.34348 -3.63699,1.99919 -6.12666,3.67931 -11.08318,7.47943 -37.69284,18.18406 -57.34,23.06695 -22.78137,5.66183 -57.7616,7.09933 -81.06666,3.33142 z"
       id="path876" />
    <path
       style="display:inline;fill:#0086b2;stroke-width:1.06667"
       d="M 179.07655,542.88535 C 156.13756,539.24398 137.77142,533.44087 118.20077,523.6506 96.827016,512.9583 81.635946,501.97859 64.500032,484.8371 22.541617,442.86502 1.0074073,391.84264 1.0074073,334.39998 c 0,-46.60053 13.6184527,-87.60061 41.9846057,-126.39999 5.437459,-7.43739 24.04523,-26.80735 69.941547,-72.80641 l 62.5331,-62.673083 41.6159,41.594073 41.6159,41.59409 -59.02852,58.94566 c -32.46569,32.42012 -61.09625,61.82566 -63.62347,65.34566 -6.24813,8.70262 -10.67721,17.828 -14.08363,29.01697 -2.53495,8.32652 -2.85661,11.12456 -2.85661,24.8497 0,13.74299 0.31989,16.51763 2.87035,24.89709 6.02833,19.80588 15.84565,34.67199 30.55674,46.27122 9.94226,7.83917 13.80302,10.18141 23.07116,13.99678 12.94271,5.32807 22.00193,7.06753 36.66217,7.03947 11.11721,-0.0212 15.05945,-0.50093 23.71848,-2.88579 23.32871,-6.42517 24.99792,-7.78529 94.43764,-76.95073 l 60.02281,-59.78572 41.84099,41.841 41.841,41.84099 -52.79713,52.89052 c -46.21247,46.2942 -68.72017,68.12639 -77.94636,75.60701 -4.82888,3.91528 -18.57702,13.61886 -20.1841,14.24617 -0.88,0.34348 -3.52,1.91786 -5.86667,3.4986 -11.11898,7.48983 -38.24072,18.43631 -57.59999,23.24766 -22.93469,5.69993 -56.70423,7.06669 -80.65677,3.26443 z"
       id="path874" />
    <path
       style="fill:#02829c;stroke-width:1.06667"
       d="M 179.07655,542.88535 C 137.01411,536.2083 99.879782,518.32985 69.866662,490.30588 l -7.466666,-6.97181 41.787494,-41.85284 41.78749,-41.85285 7.27918,5.87071 c 11.97349,9.6567 22.03203,14.61499 37.67916,18.57366 12.54004,3.17259 31.67963,2.79562 45.05181,-0.88733 23.32871,-6.42517 24.99792,-7.78529 94.43764,-76.95073 l 60.02281,-59.78572 41.84099,41.841 41.841,41.84099 -52.79713,52.89052 c -46.21247,46.2942 -68.72017,68.12639 -77.94636,75.60701 -4.82888,3.91528 -18.57702,13.61886 -20.1841,14.24617 -0.88,0.34348 -3.52,1.91786 -5.86667,3.4986 -11.11898,7.48983 -38.24072,18.43631 -57.59999,23.24766 -22.93469,5.69993 -56.70423,7.06669 -80.65677,3.26443 z"
       id="path872" />
    <path
       style="fill:#006080;stroke-width:1.06667"
       d="m 179.73332,542.92884 c -42.18198,-6.90436 -76.12758,-22.85586 -107.373018,-50.45604 -5.184835,-4.57994 -9.426973,-8.66226 -9.426973,-9.07179 0,-0.40955 18.685216,-19.42524 41.522701,-42.25709 l 41.5227,-41.51247 7.2773,5.86918 c 9.00045,7.25889 13.01139,9.68737 22.34845,13.53111 12.94271,5.32807 22.00193,7.06753 36.66217,7.03947 20.52935,-0.0393 35.93405,-4.82503 52.26667,-16.23751 4.00176,-2.79624 32.05052,-29.87252 66.33683,-64.03683 l 59.40349,-59.19212 41.59365,42.03094 41.59365,42.03095 -57.26381,57.12724 c -55.06347,54.93213 -63.59899,63.19554 -73.75756,71.40609 -5.48208,4.43083 -19.02072,13.86667 -19.89605,13.86667 -0.33782,0 -1.88832,0.89853 -3.44554,1.99675 -11.0599,7.79983 -38.50487,19.29708 -57.76466,24.19876 -23.07586,5.87289 -58.4187,7.46102 -81.6,3.66669 z"
       id="path870" />
  </g>
</svg>
